<?xml version="1.0" encoding="UTF-8" standalone="no"?>
<!-- Created with Inkscape (http://www.inkscape.org/) -->

<svg
   xmlns:dc="http://purl.org/dc/elements/1.1/"
   xmlns:cc="http://creativecommons.org/ns#"
   xmlns:rdf="http://www.w3.org/1999/02/22-rdf-syntax-ns#"
   xmlns:svg="http://www.w3.org/2000/svg"
   xmlns="http://www.w3.org/2000/svg"
   xmlns:sodipodi="http://sodipodi.sourceforge.net/DTD/sodipodi-0.dtd"
   xmlns:inkscape="http://www.inkscape.org/namespaces/inkscape"
   width="210mm"
   height="297mm"
   viewBox="0 0 210 297"
   version="1.1"
   id="svg8"
   inkscape:version="0.92.5 (2060ec1f9f, 2020-04-08)"
   sodipodi:docname="logo.svg"
   inkscape:export-filename="/tmp/foo.png"
   inkscape:export-xdpi="286"
   inkscape:export-ydpi="286">
  <defs
     id="defs2" />
  <sodipodi:namedview
     id="base"
     pagecolor="#ffffff"
     bordercolor="#666666"
     borderopacity="1.0"
     inkscape:pageopacity="0.0"
     inkscape:pageshadow="2"
     inkscape:zoom="1"
     inkscape:cx="382.26982"
     inkscape:cy="560"
     inkscape:document-units="mm"
     inkscape:current-layer="layer1"
     showgrid="false"
     inkscape:window-width="1848"
     inkscape:window-height="1022"
     inkscape:window-x="72"
     inkscape:window-y="27"
     inkscape:window-maximized="1"
     showguides="false" />
  <metadata
     id="metadata5">
    <rdf:RDF>
      <cc:Work
         rdf:about="">
        <dc:format>image/svg+xml</dc:format>
        <dc:type
           rdf:resource="http://purl.org/dc/dcmitype/StillImage" />
        <dc:title></dc:title>
      </cc:Work>
    </rdf:RDF>
  </metadata>
  <g
     inkscape:label="Layer 1"
     inkscape:groupmode="layer"
     id="layer1">
    <path
       style="fill:none;stroke:#000000;stroke-width:2;stroke-linecap:round;stroke-linejoin:miter;stroke-miterlimit:4;stroke-dasharray:none;stroke-opacity:1"
       d="m 52.916665,138.51458 c 0,0 -13.758333,53.18126 48.683335,67.99792 0,0 -25.664584,-15.34583 -24.870834,-52.65208"
       id="path826"
       inkscape:connector-curvature="0"
       sodipodi:nodetypes="ccc" />
    <path
       style="fill:none;stroke:#000000;stroke-width:2;stroke-linecap:butt;stroke-linejoin:miter;stroke-miterlimit:4;stroke-dasharray:none;stroke-opacity:1"
       d="m 127.26458,194.34167 c 0,0 23.8125,-13.22917 24.34167,-33.60209 0.52916,-20.37291 -7.9375,-25.66458 -15.34584,-34.66041 -4.49791,-3.175 -15.61042,-17.19793 -18.52084,-34.131254 0,0 -3.16141,9.758314 2.91042,22.489574 4.10105,8.59897 1.32802,12.2029 -6.38307,7.97058 -8.95074,-4.91271 -12.9315,-23.84557 -12.9315,-23.84557 0,0 -2.645838,-7.14375 0.26458,-34.660416 0,0 -26.458333,22.754166 -17.991667,66.410416 0,0 -11.641667,-13.22917 -11.90625,-20.6375 0,0 -11.641666,18.52083 -6.879166,52.65208"
       id="path847"
       inkscape:connector-curvature="0"
       sodipodi:nodetypes="csccssccccc" />
    <path
       style="fill:none;stroke:#000000;stroke-width:2;stroke-linecap:butt;stroke-linejoin:miter;stroke-opacity:1;stroke-miterlimit:4;stroke-dasharray:none"
       d="m 64.822916,162.32708 c 0,0 -12.435419,-12.43542 -11.90625,-23.8125"
       id="path853"
       inkscape:connector-curvature="0" />
    <path
       style="fill:none;stroke:#000000;stroke-width:2;stroke-linecap:round;stroke-linejoin:miter;stroke-miterlimit:4;stroke-dasharray:none;stroke-opacity:1"
       d="m 127.26458,194.34167 c 10.58333,-18.52083 -6.87916,-35.18959 -6.87916,-35.18959 0,0 -0.52917,19.84375 -11.37709,16.13958 0,0 -9.524997,0.52917 -22.754163,-27.51666 0,0 -1.058334,16.13958 5.027083,23.8125"
       id="path855"
       inkscape:connector-curvature="0"
       sodipodi:nodetypes="ccccc" />
    <path
       style="fill:none;stroke:#000000;stroke-width:2;stroke-linecap:round;stroke-linejoin:round;stroke-opacity:1;stroke-miterlimit:4;stroke-dasharray:none"
       d="m 76.729166,153.86042 c 0,0 8.466666,12.7 14.552083,17.72708"
       id="path857"
       inkscape:connector-curvature="0" />
  </g>
</svg>
